<svg version="1" xmlns="http://www.w3.org/2000/svg" width="346.667" height="346.667" viewBox="0 0 260.000000 260.000000"><path d="M199.5 37.6c-1.1.2-4.5.9-7.5 1.5-7.6 1.5-20.4 7.9-27.2 13.6-22.1 18.5-33.5 51.3-30 86 1.4 14.6 4.2 25.5 8.7 35.2 9.8 20.5 24.6 33.5 44.5 38.8 8.8 2.3 29.8 2.3 39.5-.1 9.1-2.2 21.8-8.4 27.7-13.6l4.7-4.1-5.6-7.7c-3.1-4.2-6-8.1-6.4-8.6-.5-.5-2.9 1-5.7 3.6-2.7 2.6-6.8 5.6-9 6.7-13.7 7-33.6 6.7-46.2-.6-11.1-6.5-20.9-20.5-25.2-36-1.8-6.6-2.2-10.4-2.1-25.3 0-14.7.3-18.7 2.1-25.4 3.3-11.9 8.4-21.7 15.3-29 7-7.5 12.4-11 20.5-13.1 11.6-3 32.6-1.1 42.7 3.9l4.8 2.4.9-2.2c.4-1.1 2.2-5.6 3.8-9.9l3.1-7.8-4.7-2c-6.7-2.9-14.4-4.8-24.2-5.9-8.3-1-20.6-1.1-24.5-.4zM19 40c-6.3.4-12.3.8-13.2.9C4.1 41 4 45.8 4 126.5V212h23v-74.2l12.3.7c6.7.4 12.6 1.1 13.1 1.5.5.5 10.8 16.7 23.1 36.2l22.2 35.3 13.8.3c11.1.2 13.6 0 12.8-1-2.6-3.4-48.3-75.8-48.3-76.6 0-.5 1.7-1.4 3.8-2 9.9-3 22.1-15.9 26.4-27.9 4.2-11.9 3.2-28-2.4-40-5-10.7-17.2-19.2-32.8-22.8-8.6-2-33.5-2.7-52-1.5zm44.8 23.4c8.1 2.2 13.8 6 16.9 11.4 2.5 4.2 2.8 5.7 2.8 13.7 0 5-.6 10.7-1.4 12.9-1.9 5.4-7.3 11-12.9 13.4-8.5 3.7-25.2 5.3-37.6 3.6l-4.6-.7V62.1l3.3-.4c6-.9 28.1.2 33.5 1.7z"/></svg>